<svg viewBox="0 0 512 512" xmlns="http://www.w3.org/2000/svg">
  <!-- Water -->
  <path fill="#00BEEA" d="M10.383 372.944v116.673c0 6.6 5.4 12 12 12h467.234c6.6 0 12-5.4 12-12V375.405c-155.92-.753-365.096-1.972-491.234-2.461z"/>
  <!-- Hull bottom -->
  <path fill="#AF773F" d="M437.433 313.217c-49.014 49.581-114.304 79.843-185.997 79.843c-173.516 0-161.517-32.089-185.997-79.843h371.994z"/>
  <!-- Sails (red) -->
  <path fill="#FF473E" d="M167.544 240.721c1.805 4.339-1.627 9.029-6.481 8.844c-24.176-.921-81.488-2.812-97.148-.705c-4.049.545-7.354-3.375-6.548-7.697c11.189-59.979 72.266-120.626 108.06-154.723c1.754-1.671 4.27.453 3.445 2.906c-8.194 24.344-26.275 91.412-1.328 151.375zm16.188-1.316c72.183-21.43 151.942 1.447 151.037-3.75C321.344 158.63 221.208 64.102 182.793 25.102l.939 214.303z"/>
  <!-- Mast -->
  <path fill="#464A4C" d="M182.793 304.767h-8.521c-3.777 0-6.84-5.114-6.84-11.423V36.525c0-6.309 3.062-11.423 6.84-11.423h8.521c3.777 0 6.84 5.114 6.84 11.423v256.819c-.001 6.308-3.063 11.423-6.84 11.423z"/>
  <!-- Hull deck -->
  <path fill="#D19B61" d="M427.423 288.527H65.372c-9.588 0-17.36 7.773-17.36 17.36v2.485c0 9.588 7.773 17.36 17.36 17.36h362.052c9.588 0 17.36-7.772 17.36-17.36v-2.485c0-9.587-7.773-17.36-17.361-17.36z"/>
</svg>
